PathFileType	4	(X/Y/Z)	s01c0102.trc
DataRate	CameraRate	NumFrames	NumMarkers	Units	OrigDataRate	OrigDataStartFrame	OrigNumFrames
200	200	4	48	mm	200	500	2000
Frame#	Time	racr			lacr			c7			jug			rlel			rdr			llel			ldr			s2			lic			ric			lasi			rasi			rpsi			lpsi			rgt			lgt			rth1			rth2			rth3			rth4			rlfc			rsh1			rsh2			rsh3			rsh4			rlmal			rmmal			rcal			rtoe			rmt5			lth1			lth2			lth4			lth3			llfc			lsh1			lsh2			lsh3			lsh4			llmal			lmmal			lcal			ltoe			lmt5			SBIKE			LBIKE			RBIKE			
		X1	Y1	Z1	X2	Y2	Z2	X3	Y3	Z3	X4	Y4	Z4	X5	Y5	Z5	X6	Y6	Z6	X7	Y7	Z7	X8	Y8	Z8	X9	Y9	Z9	X10	Y10	Z10	X11	Y11	Z11	X12	Y12	Z12	X13	Y13	Z13	X14	Y14	Z14	X15	Y15	Z15	X16	Y16	Z16	X17	Y17	Z17	X18	Y18	Z18	X19	Y19	Z19	X20	Y20	Z20	X21	Y21	Z21	X22	Y22	Z22	X23	Y23	Z23	X24	Y24	Z24	X25	Y25	Z25	X26	Y26	Z26	X27	Y27	Z27	X28	Y28	Z28	X29	Y29	Z29	X30	Y30	Z30	X31	Y31	Z31	X32	Y32	Z32	X33	Y33	Z33	X34	Y34	Z34	X35	Y35	Z35	X36	Y36	Z36	X37	Y37	Z37	X38	Y38	Z38	X39	Y39	Z39	X40	Y40	Z40	X41	Y41	Z41	X42	Y42	Z42	X43	Y43	Z43	X44	Y44	Z44	X45	Y45	Z45	X46	Y46	Z46	X47	Y47	Z47	X48	Y48	Z48	
500	2.5000	464.902252	1345.443237	-143.060455	489.234589	1290.437744	-427.947693	423.314056	1399.154541	-293.534149	422.771271	1229.393433	-280.040741	540.365295	1092.198364	-23.548748	724.941162	894.628174	-56.631069	563.257751	1038.895508	-534.533508	733.068542	863.093323	-443.331879	-102.678230	1182.407837	-293.281494	66.978683	1174.678833	-459.389679	49.590088	1220.434692	-129.104324	73.132698	1123.233276	-428.808899	78.255684	1168.723022	-153.445663	-79.296173	1230.845215	-246.864914	-74.188026	1219.432617	-351.449066	9.221546	1113.615723	-89.407135	13.489932	1031.887695	-463.543640	127.354271	1044.590820	-73.788696	205.774292	1018.182373	-79.609169	288.679230	983.402100	-90.593086	224.020981	1067.964233	-99.910622	372.441345	906.060364	-115.454994	328.632935	796.824341	-80.857178	304.564819	715.262573	-82.316193	270.894196	633.289917	-90.509010	348.701080	700.444824	-120.644608	221.126221	516.183472	-102.681335	257.695648	529.158325	-186.975510	176.329056	474.199646	-157.541931	444.752045	488.430176	-128.690308	342.274048	446.223022	-63.587250	73.135910	918.780396	-462.374146	141.761963	861.237183	-456.646240	177.367996	901.667969	-451.725647	199.616516	801.735779	-433.871521	246.957504	700.262817	-408.525726	176.298798	613.558533	-447.668121	141.091843	534.628784	-440.432190	103.552475	458.463043	-427.205017	191.135574	515.343079	-409.624725	47.765907	343.031525	-411.238312	77.712479	339.885620	-332.615906	-4.305537	330.763672	-369.264038	232.662460	184.148727	-373.264374	130.397736	213.565903	-439.392700	-224.710159	892.728516	-252.704544	-12.377183	84.159271	-454.218750	-20.300198	80.973083	-53.990013	
501	2.5050	464.545471	1345.307251	-143.466080	488.965942	1290.033447	-427.455353	422.840942	1398.494873	-293.485107	422.174133	1228.583984	-279.687073	540.245300	1092.250000	-23.499107	724.660645	894.590454	-56.626957	563.122864	1038.690918	-534.656433	732.943848	862.969727	-443.488159	-103.033463	1181.652100	-291.225525	64.869530	1173.940674	-458.312927	50.060333	1218.832764	-127.756813	71.684258	1122.351440	-427.745148	78.947388	1167.883179	-152.722900	-79.006561	1229.962646	-244.872025	-75.094711	1218.585205	-349.273163	10.308873	1111.718262	-88.437836	12.640783	1031.314209	-462.506744	128.373383	1042.197266	-73.325806	206.462036	1014.731018	-79.641953	288.751801	978.805481	-91.277153	225.111771	1064.193359	-100.291496	371.287872	899.052124	-116.305626	329.129700	788.350525	-81.243706	306.597351	706.433289	-82.975380	274.425812	623.814270	-91.049034	350.641907	692.629333	-121.835327	226.159164	507.096527	-102.481720	262.339661	520.656067	-186.926743	181.520920	464.236938	-157.351547	450.002380	482.555603	-128.605972	348.171143	439.020935	-63.445427	74.155441	919.678650	-461.213074	142.875397	862.745300	-456.789246	177.990738	903.547058	-451.500946	201.477524	803.695007	-434.836334	249.929169	702.576904	-409.675049	177.773529	617.241394	-447.401611	140.699341	539.195984	-440.410583	101.359550	464.104645	-427.206421	190.056564	518.867859	-409.595093	43.094425	350.630035	-411.048950	73.587624	346.272217	-331.874207	-9.319416	338.419647	-368.692505	226.543503	189.991943	-373.619354	124.274582	220.213470	-439.330933	-224.646698	892.688599	-252.689407	-12.364519	84.164864	-454.221375	-20.310196	80.958603	-53.997936	
502	2.5100	464.237427	1345.068970	-143.764923	488.689026	1289.639160	-426.890686	422.403656	1397.997192	-293.652588	421.821381	1227.614258	-279.340027	540.045105	1092.185547	-23.346558	724.478516	894.493896	-56.619850	563.088257	1038.528198	-534.712402	732.823303	862.855896	-443.584320	-103.422607	1180.895752	-288.945404	63.264511	1173.111572	-457.430420	50.469322	1217.025879	-126.229469	70.631439	1121.437622	-426.737366	79.731026	1167.016846	-151.890045	-79.040550	1229.048340	-242.617645	-75.898857	1217.820068	-347.284698	11.442247	1109.639404	-87.341583	11.935169	1030.814453	-461.398071	129.635452	1039.455933	-72.739220	207.227844	1011.007385	-79.617691	288.953094	973.943604	-91.891762	226.345551	1060.096191	-100.681732	370.036835	892.037109	-117.096832	329.687622	780.297729	-81.535530	308.870209	698.028992	-83.414459	278.213104	614.738525	-91.372383	352.770325	685.108459	-122.006172	231.059723	498.170837	-102.065903	266.791016	512.039978	-186.438568	186.773773	455.011780	-156.997299	455.149872	476.074280	-128.541779	353.898285	431.343842	-63.372936	74.584572	920.410217	-460.732483	143.962128	864.118347	-456.985962	178.640930	905.445251	-451.588623	203.311554	805.540649	-436.004425	253.044220	705.067505	-411.040588	179.418991	621.151855	-447.781403	140.395035	544.229797	-440.522308	98.802795	470.204773	-426.433624	189.329849	522.495850	-409.811493	38.745544	358.320526	-410.674927	69.191429	353.462860	-330.898926	-13.787561	346.277191	-367.815979	220.798782	196.159592	-373.842346	118.506577	227.221832	-439.220734	-224.573013	892.654785	-252.632004	-12.373207	84.132942	-454.196625	-20.318722	80.926773	-54.002777	
503	2.5150	463.941315	1344.847656	-143.932480	488.496796	1289.432617	-426.392303	422.009186	1397.354248	-293.386108	421.502869	1226.955811	-279.064209	539.841248	1091.996094	-23.151196	724.364014	894.340454	-56.569958	563.076660	1038.328003	-534.843628	732.768494	862.773682	-443.610596	-103.716957	1180.031616	-286.520050	61.844299	1171.921387	-456.451813	50.960152	1215.034302	-124.611961	69.602142	1120.473877	-425.697479	80.561401	1166.127686	-150.817062	-78.966888	1228.037354	-240.173950	-76.640259	1217.081055	-345.122467	12.830300	1107.542603	-86.184685	11.298560	1030.452881	-460.241638	130.941528	1036.405640	-72.115875	208.026291	1006.880432	-79.546638	289.198364	968.660034	-92.456482	227.744034	1055.743042	-100.955040	368.701019	885.131165	-117.739426	330.334900	772.594543	-81.783211	311.077911	689.915710	-83.744026	281.953979	606.104553	-91.427475	354.791840	677.894714	-122.801590	235.792206	489.086487	-101.510269	272.649017	503.217529	-186.776505	191.785355	446.013184	-156.381714	460.242554	469.038940	-128.549423	359.209076	423.532776	-63.138981	75.179428	921.111267	-460.317841	145.033905	865.722778	-457.339600	179.294449	907.290222	-452.026184	204.812943	807.399353	-436.893799	256.289764	707.679626	-412.531219	181.195419	625.475098	-448.196136	140.325974	549.477356	-440.705872	96.813896	476.585541	-426.186096	188.811218	526.622620	-410.226959	34.888515	366.222260	-410.124390	65.872337	360.843384	-329.839233	-17.866167	353.856384	-366.058167	215.420914	202.530670	-374.164001	113.132584	234.564926	-439.078461	-224.492264	892.626953	-252.529495	-12.380768	84.145813	-454.215759	-20.322639	80.889046	-53.992188	
